<svg id="Layer_1" data-name="Layer 1" xmlns="http://www.w3.org/2000/svg" viewBox="0 0 4000 4000"><path fill="#93d996" d="M3913.68,1194.83C3872.53,1011.12,3672,841.08,3488.16,822a15416.91,15416.91,0,0,0-2976.32,0C328,841.08,127.47,1011.12,86.32,1194.83q-172.63,805.17,0,1610.34C127.47,2988.88,328,3158.92,511.84,3178a15416.91,15416.91,0,0,0,2976.32,0c183.83-19.08,384.37-189.13,425.52-372.84Q4086.32,2000,3913.68,1194.83ZM2000,2791l-808.8-808.8,232.4-232.4,412.07,412.06V1209h328.66v952.84l412.07-412.06,232.4,232.4Z"/></svg>